STARTFONT 2.1
FONT -FontForge-Frutiger LT 55 Roman-Book-R-Normal--36-350-75-75-P-195-ISO8859-1
SIZE 35 75 75
FONTBOUNDINGBOX 43 43 -6 -9
COMMENT "Generated by fontforge, http://fontforge.sourceforge.net"
COMMENT "Part of the digitally encoded machine readable outline data for producing the Typefaces provided is copyrighted (c) 1988, 1990, 1994, 2001, 2002, 2003, Linotype Library GmbH, www.linotype.com. All rights reserved. This software is the property of Linotype Library GmbH, and may not be reproduced, used, displayed, modified, disclosed or transferred Library GmbH. Copyright (c) 1988, 1990, 1994, 2001, 2002, 2003, Adobe Systems Incorporated. All rights reserved."
STARTPROPERTIES 40
FOUNDRY "FontForge"
FAMILY_NAME "Frutiger LT 55 Roman"
WEIGHT_NAME "Book"
SLANT "R"
SETWIDTH_NAME "Normal"
ADD_STYLE_NAME ""
PIXEL_SIZE 36
POINT_SIZE 350
RESOLUTION_X 75
RESOLUTION_Y 75
SPACING "P"
AVERAGE_WIDTH 195
CHARSET_REGISTRY "ISO8859"
CHARSET_ENCODING "1"
FONTNAME_REGISTRY ""
CHARSET_COLLECTIONS "ISOLatin1Encoding"
FONT_NAME "FrutigerLT-Roman"
FACE_NAME "Frutiger LT 55 Roman"
COPYRIGHT "Part of the digitally encoded machine readable outline data for producing the Typefaces provided is copyrighted (c) 1988, 1990, 1994, 2001, 2002, 2003, Linotype Library GmbH, www.linotype.com. All rights reserved. This software is the property of Linotype Library GmbH, and may not be reproduced, used, displayed, modified, disclosed or transferred Library GmbH. Copyright (c) 1988, 1990, 1994, 2001, 2002, 2003, Adobe Systems Incorporated. All rights reserved."
FONT_VERSION "6.04"
FONT_ASCENT 29
FONT_DESCENT 7
UNDERLINE_POSITION -4
UNDERLINE_THICKNESS 2
X_HEIGHT 18
CAP_HEIGHT 24
RAW_ASCENT 800
RAW_DESCENT 200
NORM_SPACE 10
RELATIVE_WEIGHT 40
RELATIVE_SETWIDTH 50
SUPERSCRIPT_X 0
SUPERSCRIPT_Y 10
SUPERSCRIPT_SIZE 7
SUBSCRIPT_X 0
SUBSCRIPT_Y 10
SUBSCRIPT_SIZE 7
FIGURE_WIDTH 20
AVG_LOWERCASE_WIDTH 192
AVG_UPPERCASE_WIDTH 232
ENDPROPERTIES
CHARS 232
STARTCHAR space
ENCODING 32
SWIDTH 278 0
DWIDTH 10 0
BBX 1 1 0 0
BITMAP
00
ENDCHAR
STARTCHAR exclam
ENCODING 33
SWIDTH 389 0
DWIDTH 14 0
BBX 4 25 5 0
BITMAP
F0
F0
F0
F0
F0
F0
F0
F0
F0
F0
F0
F0
F0
F0
F0
F0
F0
F0
00
00
00
F0
F0
F0
F0
ENDCHAR
STARTCHAR quotedbl
ENCODING 34
SWIDTH 556 0
DWIDTH 20 0
BBX 8 9 6 16
BITMAP
E7
E7
E7
E7
E7
E7
E7
E7
E7
ENDCHAR
STARTCHAR numbersign
ENCODING 35
SWIDTH 556 0
DWIDTH 20 0
BBX 18 25 1 0
BITMAP
070E00
070E00
070E00
070E00
070E00
060C00
060C00
7FFFC0
7FFFC0
7FFFC0
0E1C00
0E1C00
0E1800
0C1800
1C3800
FFFF80
FFFF80
FFFF80
1C3800
1C3800
183000
387000
387000
387000
387000
ENDCHAR
STARTCHAR dollar
ENCODING 36
SWIDTH 556 0
DWIDTH 20 0
BBX 15 32 3 -4
BITMAP
0300
0300
0300
07F0
1FFC
3FF8
7F18
7B00
F300
F300
F300
FB00
7F00
7F00
3FC0
0FF0
03F8
03FC
037E
031E
031E
031E
031E
033E
437C
7FF8
7FF0
FFC0
0300
0300
0300
0300
ENDCHAR
STARTCHAR percent
ENCODING 37
SWIDTH 1000 0
DWIDTH 36 0
BBX 28 27 4 -1
BITMAP
00000E00
1F000C00
3F801C00
7FC01800
F1E03800
E0E07000
E0E06000
E0E0E000
E0E0C000
E0E1C000
E0E18000
71C38000
7FC70F80
3F861FC0
1F0E3FE0
000C78F0
001C7070
00387070
00387070
00707070
00607070
00E07070
00C038E0
01C03FE0
03801FC0
03000F80
07000000
ENDCHAR
STARTCHAR ampersand
ENCODING 38
SWIDTH 722 0
DWIDTH 26 0
BBX 22 25 3 0
BITMAP
01F800
07FC00
0FFE00
1E0E00
1E0F00
1C0F00
1C0F00
1E0E00
0F1E00
0F7C00
07F800
07E000
1FE070
3EF070
7CF870
F87CF0
F03EE0
F01FE0
F00FC0
F007C0
F807C0
7C0FE0
7FFEF0
1FFCF8
07F07C
ENDCHAR
STARTCHAR quotesingle
ENCODING 39
SWIDTH 278 0
DWIDTH 10 0
BBX 3 9 3 16
BITMAP
E0
E0
E0
E0
E0
E0
E0
E0
E0
ENDCHAR
STARTCHAR parenleft
ENCODING 40
SWIDTH 333 0
DWIDTH 12 0
BBX 9 32 2 -5
BITMAP
0380
0700
0F00
0E00
1E00
1C00
3C00
3C00
7800
7800
7800
F800
F000
F000
F000
F000
F000
F000
F000
F000
F800
7800
7800
7800
3C00
3C00
1C00
1E00
0E00
0F00
0700
0380
ENDCHAR
STARTCHAR parenright
ENCODING 41
SWIDTH 333 0
DWIDTH 12 0
BBX 9 32 1 -5
BITMAP
E000
7000
7800
3800
3C00
1C00
1E00
1E00
0F00
0F00
0F00
0F00
0780
0780
0780
0780
0780
0780
0780
0780
0F80
0F00
0F00
0F00
1E00
1E00
1C00
3C00
3800
7800
7000
E000
ENDCHAR
STARTCHAR asterisk
ENCODING 42
SWIDTH 556 0
DWIDTH 20 0
BBX 16 14 2 11
BITMAP
03C0
03C0
03C0
81C2
718E
FDBF
FFFF
07E0
07E0
0FF0
0E70
1C38
3C3C
0810
ENDCHAR
STARTCHAR plus
ENCODING 43
SWIDTH 600 0
DWIDTH 22 0
BBX 19 19 1 0
BITMAP
00E000
00E000
00E000
00E000
00E000
00E000
00E000
00E000
FFFFE0
FFFFE0
FFFFE0
00E000
00E000
00E000
00E000
00E000
00E000
00E000
00E000
ENDCHAR
STARTCHAR comma
ENCODING 44
SWIDTH 278 0
DWIDTH 10 0
BBX 6 9 1 -5
BITMAP
3C
3C
78
78
78
70
F0
E0
E0
ENDCHAR
STARTCHAR hyphen
ENCODING 45
SWIDTH 333 0
DWIDTH 12 0
BBX 10 3 1 8
BITMAP
FFC0
FFC0
FFC0
ENDCHAR
STARTCHAR period
ENCODING 46
SWIDTH 278 0
DWIDTH 10 0
BBX 4 4 3 0
BITMAP
F0
F0
F0
F0
ENDCHAR
STARTCHAR slash
ENCODING 47
SWIDTH 278 0
DWIDTH 10 0
BBX 12 25 -1 0
BITMAP
00F0
00E0
00E0
01C0
01C0
01C0
0380
0380
0380
0700
0700
0700
0E00
0E00
0E00
1C00
1C00
1C00
3800
3800
3800
7000
7000
7000
E000
ENDCHAR
STARTCHAR zero
ENCODING 48
SWIDTH 556 0
DWIDTH 20 0
BBX 17 25 1 0
BITMAP
03F000
0FF800
1FFC00
3E3E00
3C1F00
780F00
780F00
780780
F00780
F00780
F00780
F00780
F00780
F00780
F00780
F00780
F00780
700780
780F00
780F00
3C1F00
3E3E00
1FFC00
0FF800
03F000
ENDCHAR
STARTCHAR one
ENCODING 49
SWIDTH 556 0
DWIDTH 20 0
BBX 10 25 4 0
BITMAP
03C0
07C0
1FC0
3FC0
7FC0
F3C0
63C0
03C0
03C0
03C0
03C0
03C0
03C0
03C0
03C0
03C0
03C0
03C0
03C0
03C0
03C0
03C0
03C0
03C0
03C0
ENDCHAR
STARTCHAR two
ENCODING 50
SWIDTH 556 0
DWIDTH 20 0
BBX 16 25 2 0
BITMAP
0FE0
7FF8
7FFC
703E
001F
000F
000F
000F
000F
001F
001E
003C
007C
0078
00F0
01E0
03C0
0F80
1F00
3E00
7C00
F800
FFFF
FFFF
FFFF
ENDCHAR
STARTCHAR three
ENCODING 51
SWIDTH 556 0
DWIDTH 20 0
BBX 16 25 2 0
BITMAP
1FE0
7FF8
7FFC
603E
001E
000F
000F
000F
001E
003E
01FC
0FF0
0FF0
0FFC
003E
001E
000F
000F
000F
000F
001F
C07E
FFFC
FFF8
3FE0
ENDCHAR
STARTCHAR four
ENCODING 52
SWIDTH 556 0
DWIDTH 20 0
BBX 19 25 0 0
BITMAP
003F00
007F00
007F00
00FF00
00EF00
01CF00
03CF00
038F00
078F00
0F0F00
0F0F00
1E0F00
1C0F00
3C0F00
780F00
780F00
FFFFE0
FFFFE0
FFFFE0
000F00
000F00
000F00
000F00
000F00
000F00
ENDCHAR
STARTCHAR five
ENCODING 53
SWIDTH 556 0
DWIDTH 20 0
BBX 15 25 3 0
BITMAP
FFFC
FFFC
FFFC
F000
F000
F000
F000
F000
E000
FFC0
FFF0
FFF8
80FC
007C
003E
001E
001E
001E
001E
003E
003C
80F8
FFF8
FFE0
7F80
ENDCHAR
STARTCHAR six
ENCODING 54
SWIDTH 556 0
DWIDTH 20 0
BBX 17 25 2 0
BITMAP
01FE00
07FF00
0FFE00
1F0200
3E0000
7C0000
780000
780000
F00000
F1F000
F7FC00
FFFE00
FE1F00
F80F00
F80F00
F80780
F00780
F00780
780780
780F00
7C0F00
3E1E00
3FFE00
0FFC00
07F000
ENDCHAR
STARTCHAR seven
ENCODING 55
SWIDTH 556 0
DWIDTH 20 0
BBX 16 25 1 0
BITMAP
FFFF
FFFF
FFFF
000F
000F
001E
001E
001C
003C
0038
0078
0078
00F0
00F0
00E0
01E0
01E0
03C0
03C0
0780
0780
0700
0F00
0F00
1E00
ENDCHAR
STARTCHAR eight
ENCODING 56
SWIDTH 556 0
DWIDTH 20 0
BBX 17 25 1 0
BITMAP
07F000
1FFC00
3FFE00
7E1F00
780F80
780780
780780
780F00
7C0F00
3E1E00
1FBC00
0FF800
0FFC00
3F7E00
7C1F00
780F80
F00780
F00780
F00780
F00780
F80780
7C1F80
3FFF00
1FFE00
07F000
ENDCHAR
STARTCHAR nine
ENCODING 57
SWIDTH 556 0
DWIDTH 20 0
BBX 17 25 1 0
BITMAP
07F000
1FF800
3FFE00
3C3E00
781F00
780F00
F00F00
F00780
F00780
F00F80
780F80
780F80
7C3F80
3FFF80
1FF780
07C780
000780
000F00
000F00
001F00
003E00
207C00
3FF800
3FF000
7FC000
ENDCHAR
STARTCHAR colon
ENCODING 58
SWIDTH 278 0
DWIDTH 10 0
BBX 4 19 3 0
BITMAP
F0
F0
F0
F0
00
00
00
00
00
00
00
00
00
00
00
F0
F0
F0
F0
ENDCHAR
STARTCHAR semicolon
ENCODING 59
SWIDTH 278 0
DWIDTH 10 0
BBX 6 23 1 -4
BITMAP
3C
3C
3C
3C
00
00
00
00
00
00
00
00
00
00
3C
3C
78
78
70
70
F0
E0
E0
ENDCHAR
STARTCHAR less
ENCODING 60
SWIDTH 600 0
DWIDTH 22 0
BBX 18 19 2 -1
BITMAP
000040
0001C0
000FC0
003F80
00FE00
03F800
1FC000
7F0000
FC0000
F00000
FE0000
3F8000
0FE000
03F800
00FF00
001FC0
0007C0
0001C0
000040
ENDCHAR
STARTCHAR equal
ENCODING 61
SWIDTH 600 0
DWIDTH 22 0
BBX 18 11 2 3
BITMAP
FFFFC0
FFFFC0
FFFFC0
000000
000000
000000
000000
000000
FFFFC0
FFFFC0
FFFFC0
ENDCHAR
STARTCHAR greater
ENCODING 62
SWIDTH 600 0
DWIDTH 22 0
BBX 18 19 2 -1
BITMAP
800000
E00000
FC0000
7F0000
1FC000
07F000
00FE00
003F80
000FC0
0003C0
001FC0
007F00
01FC00
07F000
3FC000
FE0000
F80000
E00000
800000
ENDCHAR
STARTCHAR question
ENCODING 63
SWIDTH 500 0
DWIDTH 18 0
BBX 13 25 3 0
BITMAP
3F80
FFE0
FFF0
C1F8
8078
0078
0078
0078
0078
00F8
00F0
01E0
03C0
0780
0780
0F00
0F00
0F00
0000
0000
0000
0F00
0F00
0F00
0F00
ENDCHAR
STARTCHAR at
ENCODING 64
SWIDTH 800 0
DWIDTH 29 0
BBX 25 25 2 0
BITMAP
007F8000
01FFF000
07FFF800
0F803C00
1E000E00
3C000700
783E3300
70FFF380
71FFF380
E1E1E180
E3C0E180
E380E180
E780E380
E700C380
E701C300
E783C700
73CFCE00
73FFFC00
79FDF000
3830C700
1E000E00
0F003C00
07FFF800
03FFF000
007F8000
ENDCHAR
STARTCHAR A
ENCODING 65
SWIDTH 722 0
DWIDTH 26 0
BBX 26 25 0 0
BITMAP
001E0000
003F0000
003F0000
007F0000
00778000
00738000
00F3C000
00E3C000
01E1E000
01C1E000
03C0E000
03C0F000
0380F000
07807800
07807800
0F003C00
0FFFFC00
1FFFFC00
1FFFFE00
1E001E00
3C000F00
3C000F00
78000780
78000780
F00007C0
ENDCHAR
STARTCHAR B
ENCODING 66
SWIDTH 611 0
DWIDTH 22 0
BBX 16 25 3 0
BITMAP
FFE0
FFFC
FFFE
F03E
F01F
F00F
F00F
F00F
F00F
F01E
F03E
FFF8
FFE0
FFFC
F03E
F00F
F00F
F00F
F00F
F00F
F00F
F03F
FFFE
FFFC
FFE0
ENDCHAR
STARTCHAR C
ENCODING 67
SWIDTH 611 0
DWIDTH 22 0
BBX 19 25 2 0
BITMAP
007F80
01FFE0
07FFE0
0FE0E0
1F0000
3E0000
7C0000
780000
780000
F00000
F00000
F00000
F00000
F00000
F00000
F00000
780000
780000
7C0000
3E0000
1F0000
0FE0E0
07FFE0
03FFE0
007FC0
ENDCHAR
STARTCHAR D
ENCODING 68
SWIDTH 722 0
DWIDTH 26 0
BBX 21 25 3 0
BITMAP
FFF000
FFFC00
FFFF00
F01F80
F007C0
F003E0
F001F0
F000F0
F000F0
F00078
F00078
F00078
F00078
F00078
F00078
F00078
F000F0
F000F0
F001F0
F001E0
F007E0
F01FC0
FFFF00
FFFE00
FFF000
ENDCHAR
STARTCHAR E
ENCODING 69
SWIDTH 556 0
DWIDTH 20 0
BBX 14 25 3 0
BITMAP
FFFC
FFFC
FFFC
F000
F000
F000
F000
F000
F000
F000
FFF8
FFF8
FFF8
F000
F000
F000
F000
F000
F000
F000
F000
F000
FFFC
FFFC
FFFC
ENDCHAR
STARTCHAR F
ENCODING 70
SWIDTH 500 0
DWIDTH 18 0
BBX 13 25 3 0
BITMAP
FFF8
FFF8
FFF8
F000
F000
F000
F000
F000
F000
F000
FFF8
FFF8
FFF8
F000
F000
F000
F000
F000
F000
F000
F000
F000
F000
F000
F000
ENDCHAR
STARTCHAR G
ENCODING 71
SWIDTH 722 0
DWIDTH 26 0
BBX 21 25 2 0
BITMAP
007FC0
03FFF8
07FFF8
1FE078
3F0010
3E0000
7C0000
780000
F80000
F00000
F00000
F00FF8
F00FF8
F00FF8
F00078
F00078
F00078
780078
7C0078
3E0078
3F0078
1FE078
0FFFF8
03FFF8
007FE0
ENDCHAR
STARTCHAR H
ENCODING 72
SWIDTH 722 0
DWIDTH 26 0
BBX 20 25 3 0
BITMAP
F000F0
F000F0
F000F0
F000F0
F000F0
F000F0
F000F0
F000F0
F000F0
F000F0
FFFFF0
FFFFF0
FFFFF0
F000F0
F000F0
F000F0
F000F0
F000F0
F000F0
F000F0
F000F0
F000F0
F000F0
F000F0
F000F0
ENDCHAR
STARTCHAR I
ENCODING 73
SWIDTH 278 0
DWIDTH 10 0
BBX 4 25 3 0
BITMAP
F0
F0
F0
F0
F0
F0
F0
F0
F0
F0
F0
F0
F0
F0
F0
F0
F0
F0
F0
F0
F0
F0
F0
F0
F0
ENDCHAR
STARTCHAR J
ENCODING 74
SWIDTH 389 0
DWIDTH 14 0
BBX 10 25 1 0
BITMAP
03C0
03C0
03C0
03C0
03C0
03C0
03C0
03C0
03C0
03C0
03C0
03C0
03C0
03C0
03C0
03C0
03C0
03C0
03C0
03C0
07C0
8F80
FF80
FF00
FC00
ENDCHAR
STARTCHAR K
ENCODING 75
SWIDTH 667 0
DWIDTH 24 0
BBX 20 25 3 0
BITMAP
F003E0
F007C0
F00F80
F01F00
F03E00
F07C00
F0F800
F1F000
F3E000
F7C000
FF8000
FF0000
FF8000
F7C000
F3C000
F3E000
F1F000
F0F800
F07C00
F03E00
F01F00
F00F80
F007C0
F007E0
F003F0
ENDCHAR
STARTCHAR L
ENCODING 76
SWIDTH 500 0
DWIDTH 18 0
BBX 14 25 3 0
BITMAP
F000
F000
F000
F000
F000
F000
F000
F000
F000
F000
F000
F000
F000
F000
F000
F000
F000
F000
F000
F000
F000
F000
FFFC
FFFC
FFFC
ENDCHAR
STARTCHAR M
ENCODING 77
SWIDTH 944 0
DWIDTH 34 0
BBX 28 25 3 0
BITMAP
FC0003F0
FE0007F0
FE0007F0
FE0007F0
FF000FF0
F7000EF0
F7801EF0
F3801CF0
F3801CF0
F3C03CF0
F1C038F0
F1C038F0
F1E078F0
F0E070F0
F0F0F0F0
F070F0F0
F070E0F0
F079E0F0
F039C0F0
F03DC0F0
F03FC0F0
F01F80F0
F01F80F0
F01F80F0
F00F00F0
ENDCHAR
STARTCHAR N
ENCODING 78
SWIDTH 722 0
DWIDTH 26 0
BBX 20 25 3 0
BITMAP
FC00F0
FC00F0
FE00F0
FE00F0
FF00F0
F700F0
F780F0
F380F0
F3C0F0
F1C0F0
F1E0F0
F0E0F0
F0F0F0
F070F0
F078F0
F038F0
F03CF0
F01EF0
F00EF0
F00FF0
F007F0
F007F0
F003F0
F003F0
F001F0
ENDCHAR
STARTCHAR O
ENCODING 79
SWIDTH 778 0
DWIDTH 28 0
BBX 24 25 2 0
BITMAP
00FF00
03FFC0
0FFFF0
1FC1F8
3F007C
3E003E
7C001E
78001F
F8000F
F0000F
F0000F
F0000F
F0000F
F0000F
F0000F
F0000F
F8000F
78001F
7C001E
3C003E
3F007C
1FC1F8
0FFFF0
03FFE0
00FF00
ENDCHAR
STARTCHAR P
ENCODING 80
SWIDTH 556 0
DWIDTH 20 0
BBX 16 25 3 0
BITMAP
FFE0
FFF8
FFFC
F07E
F01F
F00F
F00F
F00F
F00F
F00F
F01F
F07E
FFFC
FFF8
FFE0
F000
F000
F000
F000
F000
F000
F000
F000
F000
F000
ENDCHAR
STARTCHAR Q
ENCODING 81
SWIDTH 778 0
DWIDTH 28 0
BBX 24 29 2 -4
BITMAP
00FF00
03FFC0
0FFFF0
1FC1F8
3F007C
3E003E
7C001E
78001F
F8000F
F0000F
F0000F
F0000F
F0000F
F0000F
F0000F
F0000F
F8000F
78001F
7C001E
3C003E
3F007C
1FC1F8
0FFFF0
03FFC0
00FFC0
0001E0
0000F8
00007C
00003E
ENDCHAR
STARTCHAR R
ENCODING 82
SWIDTH 611 0
DWIDTH 22 0
BBX 18 25 3 0
BITMAP
FFE000
FFFC00
FFFE00
F03E00
F01F00
F00F00
F00F00
F00F00
F00F00
F01F00
F03E00
FFFC00
FFF000
FFF000
F07800
F03800
F03C00
F01C00
F01E00
F01E00
F00F00
F00F00
F00780
F00780
F003C0
ENDCHAR
STARTCHAR S
ENCODING 83
SWIDTH 500 0
DWIDTH 18 0
BBX 15 25 1 0
BITMAP
07F0
1FFC
3FF8
7C18
7800
F000
F000
F000
F800
7E00
3F80
1FE0
0FF0
03F8
007C
003E
001E
001E
001E
001E
003E
60FC
7FF8
7FF0
BFC0
ENDCHAR
STARTCHAR T
ENCODING 84
SWIDTH 556 0
DWIDTH 20 0
BBX 20 25 0 0
BITMAP
FFFFF0
FFFFF0
FFFFF0
00F000
00F000
00F000
00F000
00F000
00F000
00F000
00F000
00F000
00F000
00F000
00F000
00F000
00F000
00F000
00F000
00F000
00F000
00F000
00F000
00F000
00F000
ENDCHAR
STARTCHAR U
ENCODING 85
SWIDTH 722 0
DWIDTH 26 0
BBX 20 25 3 0
BITMAP
F000F0
F000F0
F000F0
F000F0
F000F0
F000F0
F000F0
F000F0
F000F0
F000F0
F000F0
F000F0
F000F0
F000F0
F000F0
F000F0
F000F0
F000F0
F801E0
7801E0
7C03E0
3F0FC0
1FFF80
0FFF00
03FC00
ENDCHAR
STARTCHAR V
ENCODING 86
SWIDTH 667 0
DWIDTH 24 0
BBX 23 25 1 0
BITMAP
F0001E
F0001E
F0003C
78003C
780038
380078
3C0078
3C00F0
1E00F0
1E00E0
1E01E0
0F01E0
0F01C0
0703C0
0783C0
078380
038780
03C700
01C700
01CF00
01EE00
00FE00
00FC00
00FC00
007C00
ENDCHAR
STARTCHAR W
ENCODING 87
SWIDTH 1000 0
DWIDTH 36 0
BBX 35 25 0 0
BITMAP
F001F001E0
F001F001E0
F003F801E0
7803B801C0
7803B803C0
7803BC03C0
3807BC0380
3C071C0380
3C071C0780
3C071E0780
1E0F1E0700
1E0E0E0F00
1E0E0E0F00
0E0E0F0E00
0F1E0F0E00
0F1C071E00
071C071C00
071C079C00
07BC07BC00
03B803B800
03B803B800
03F803F800
03F803F000
01F001F000
01F001F000
ENDCHAR
STARTCHAR X
ENCODING 88
SWIDTH 667 0
DWIDTH 24 0
BBX 23 25 1 0
BITMAP
78003C
3C0078
3E00F8
1E00F0
0F01E0
0F83C0
0783C0
03C780
01EF00
01FF00
00FE00
007C00
007C00
00FE00
01FF00
03CF00
03C780
0787C0
0F03E0
0F01E0
1E01F0
3C00F8
3C0078
78003C
F0003E
ENDCHAR
STARTCHAR Y
ENCODING 89
SWIDTH 667 0
DWIDTH 24 0
BBX 24 25 0 0
BITMAP
F8001F
78001E
3C003C
1E0078
1E0078
0F00F0
0781E0
07C1E0
03C3C0
01E780
01F780
00FF00
007E00
007E00
003C00
003C00
003C00
003C00
003C00
003C00
003C00
003C00
003C00
003C00
003C00
ENDCHAR
STARTCHAR Z
ENCODING 90
SWIDTH 556 0
DWIDTH 20 0
BBX 17 25 1 0
BITMAP
FFFF80
FFFF80
FFFF80
000780
000F00
001F00
001E00
003C00
007C00
007800
00F000
01E000
03E000
03C000
078000
0F8000
0F0000
1E0000
3E0000
3C0000
780000
F00000
FFFF80
FFFF80
FFFF80
ENDCHAR
STARTCHAR bracketleft
ENCODING 91
SWIDTH 333 0
DWIDTH 12 0
BBX 7 32 3 -5
BITMAP
FE
FE
FE
E0
E0
E0
E0
E0
E0
E0
E0
E0
E0
E0
E0
E0
E0
E0
E0
E0
E0
E0
E0
E0
E0
E0
E0
E0
E0
FE
FE
FE
ENDCHAR
STARTCHAR backslash
ENCODING 92
SWIDTH 278 0
DWIDTH 10 0
BBX 12 25 -1 0
BITMAP
F000
7000
7000
3800
3800
3800
1C00
1C00
1C00
0E00
0E00
0E00
0700
0700
0700
0380
0380
0380
01C0
01C0
01C0
00E0
00E0
00E0
0070
ENDCHAR
STARTCHAR bracketright
ENCODING 93
SWIDTH 333 0
DWIDTH 12 0
BBX 7 32 2 -5
BITMAP
FE
FE
FE
0E
0E
0E
0E
0E
0E
0E
0E
0E
0E
0E
0E
0E
0E
0E
0E
0E
0E
0E
0E
0E
0E
0E
0E
0E
0E
FE
FE
FE
ENDCHAR
STARTCHAR asciicircum
ENCODING 94
SWIDTH 600 0
DWIDTH 22 0
BBX 17 15 2 10
BITMAP
01C000
03E000
03E000
07F000
077000
0F7800
0E3800
1E3C00
1C1C00
3C1C00
380E00
780E00
700700
700700
E00380
ENDCHAR
STARTCHAR underscore
ENCODING 95
SWIDTH 500 0
DWIDTH 18 0
BBX 18 2 0 -5
BITMAP
FFFFC0
FFFFC0
ENDCHAR
STARTCHAR grave
ENCODING 96
SWIDTH 278 0
DWIDTH 10 0
BBX 7 5 0 21
BITMAP
F0
78
38
1C
0E
ENDCHAR
STARTCHAR a
ENCODING 97
SWIDTH 556 0
DWIDTH 20 0
BBX 16 19 2 0
BITMAP
07F0
1FFC
3FFE
301E
201F
000F
000F
07FF
1FFF
7FFF
780F
F00F
F00F
F00F
F01F
F83F
7FFF
3FEF
1F8F
ENDCHAR
STARTCHAR b
ENCODING 98
SWIDTH 611 0
DWIDTH 22 0
BBX 18 27 3 0
BITMAP
F00000
F00000
F00000
F00000
F00000
F00000
F00000
F00000
F1F800
F7FE00
FFFF00
FE0F00
FC0780
F80780
F003C0
F003C0
F003C0
F003C0
F003C0
F003C0
F00780
F80780
FC0F80
FE1F00
FFFF00
F7FE00
F1F800
ENDCHAR
STARTCHAR c
ENCODING 99
SWIDTH 444 0
DWIDTH 16 0
BBX 14 19 1 0
BITMAP
03F8
0FF8
1FF8
3E00
7C00
7800
F800
F000
F000
F000
F000
F000
F800
7800
7C00
3E08
1FF8
0FFC
03F8
ENDCHAR
STARTCHAR d
ENCODING 100
SWIDTH 611 0
DWIDTH 22 0
BBX 18 27 2 0
BITMAP
0003C0
0003C0
0003C0
0003C0
0003C0
0003C0
0003C0
0003C0
07E3C0
1FFBC0
3FFFC0
7C1FC0
780FC0
F807C0
F007C0
F003C0
F003C0
F003C0
F003C0
F003C0
F007C0
7807C0
780FC0
7C1FC0
3FFFC0
1FFBC0
07E3C0
ENDCHAR
STARTCHAR e
ENCODING 101
SWIDTH 556 0
DWIDTH 20 0
BBX 17 19 2 0
BITMAP
03F000
0FFC00
3FFE00
3C1F00
780F00
780780
F00780
FFFF80
FFFF80
FFFF80
F00000
F00000
F00000
780000
7C0200
3E0600
3FFE00
0FFE00
03F800
ENDCHAR
STARTCHAR f
ENCODING 102
SWIDTH 389 0
DWIDTH 14 0
BBX 13 27 1 0
BITMAP
01F8
03F8
07F8
0F80
0F00
0F00
0F00
0F00
FFF8
FFF8
FFF8
0F00
0F00
0F00
0F00
0F00
0F00
0F00
0F00
0F00
0F00
0F00
0F00
0F00
0F00
0F00
0F00
ENDCHAR
STARTCHAR g
ENCODING 103
SWIDTH 611 0
DWIDTH 22 0
BBX 18 27 2 -8
BITMAP
07E3C0
0FFBC0
3FFFC0
3E1FC0
780FC0
7807C0
F007C0
F003C0
F003C0
F003C0
F003C0
F003C0
F003C0
F807C0
780FC0
7C1FC0
3FFFC0
1FFBC0
07E3C0
0003C0
0003C0
0007C0
000780
301F80
7FFF00
7FFE00
0FF000
ENDCHAR
STARTCHAR h
ENCODING 104
SWIDTH 611 0
DWIDTH 22 0
BBX 17 27 3 0
BITMAP
F00000
F00000
F00000
F00000
F00000
F00000
F00000
F00000
F1F800
F7FE00
FFFF00
FE1F00
FC0F80
F80780
F80780
F00780
F00780
F00780
F00780
F00780
F00780
F00780
F00780
F00780
F00780
F00780
F00780
ENDCHAR
STARTCHAR i
ENCODING 105
SWIDTH 278 0
DWIDTH 10 0
BBX 4 27 3 0
BITMAP
F0
F0
F0
F0
00
00
00
00
F0
F0
F0
F0
F0
F0
F0
F0
F0
F0
F0
F0
F0
F0
F0
F0
F0
F0
F0
ENDCHAR
STARTCHAR j
ENCODING 106
SWIDTH 278 0
DWIDTH 10 0
BBX 8 35 -1 -8
BITMAP
0F
0F
0F
0F
00
00
00
00
0F
0F
0F
0F
0F
0F
0F
0F
0F
0F
0F
0F
0F
0F
0F
0F
0F
0F
0F
0F
0F
0F
0F
1F
FE
FC
F8
ENDCHAR
STARTCHAR k
ENCODING 107
SWIDTH 556 0
DWIDTH 20 0
BBX 16 27 3 0
BITMAP
F000
F000
F000
F000
F000
F000
F000
F000
F03E
F07C
F078
F0F0
F1E0
F3E0
F7C0
FF80
FF00
FF80
F7C0
F3C0
F1E0
F1F0
F0F8
F07C
F03C
F03E
F01F
ENDCHAR
STARTCHAR l
ENCODING 108
SWIDTH 278 0
DWIDTH 10 0
BBX 4 27 3 0
BITMAP
F0
F0
F0
F0
F0
F0
F0
F0
F0
F0
F0
F0
F0
F0
F0
F0
F0
F0
F0
F0
F0
F0
F0
F0
F0
F0
F0
ENDCHAR
STARTCHAR m
ENCODING 109
SWIDTH 889 0
DWIDTH 32 0
BBX 26 19 3 0
BITMAP
F1F03E00
F7F8FF00
FFFDFF80
FC3F8780
F83F07C0
F81F03C0
F01E03C0
F01E03C0
F01E03C0
F01E03C0
F01E03C0
F01E03C0
F01E03C0
F01E03C0
F01E03C0
F01E03C0
F01E03C0
F01E03C0
F01E03C0
ENDCHAR
STARTCHAR n
ENCODING 110
SWIDTH 611 0
DWIDTH 22 0
BBX 17 19 3 0
BITMAP
F1F800
F7FE00
FFFF00
FE1F00
FC0F80
F80780
F80780
F00780
F00780
F00780
F00780
F00780
F00780
F00780
F00780
F00780
F00780
F00780
F00780
ENDCHAR
STARTCHAR o
ENCODING 111
SWIDTH 611 0
DWIDTH 22 0
BBX 19 19 2 0
BITMAP
03F800
0FFE00
1FFF00
3E0F80
7C07C0
7803C0
F803E0
F001E0
F001E0
F001E0
F001E0
F001E0
F801E0
7803C0
7C07C0
3E0F80
1FFF00
0FFE00
03F800
ENDCHAR
STARTCHAR p
ENCODING 112
SWIDTH 611 0
DWIDTH 22 0
BBX 18 27 3 -8
BITMAP
F1F800
F7FE00
FFFF00
FE0F00
FC0780
F80780
F003C0
F003C0
F003C0
F003C0
F003C0
F003C0
F00780
F80780
FC0F80
FE1F00
FFFF00
F7FE00
F1F800
F00000
F00000
F00000
F00000
F00000
F00000
F00000
F00000
ENDCHAR
STARTCHAR q
ENCODING 113
SWIDTH 611 0
DWIDTH 22 0
BBX 18 27 2 -8
BITMAP
07E3C0
1FFBC0
3FFFC0
7C1FC0
780FC0
F807C0
F007C0
F003C0
F003C0
F003C0
F003C0
F003C0
F007C0
7807C0
780FC0
7C1FC0
3FFFC0
1FFBC0
07E3C0
0003C0
0003C0
0003C0
0003C0
0003C0
0003C0
0003C0
0003C0
ENDCHAR
STARTCHAR r
ENCODING 114
SWIDTH 389 0
DWIDTH 14 0
BBX 10 19 3 0
BITMAP
F3C0
F7C0
FFC0
FE00
FC00
F800
F800
F000
F000
F000
F000
F000
F000
F000
F000
F000
F000
F000
F000
ENDCHAR
STARTCHAR s
ENCODING 115
SWIDTH 389 0
DWIDTH 14 0
BBX 12 19 1 0
BITMAP
0FC0
3FE0
7FE0
F840
F000
F000
F800
FC00
7F00
3FC0
0FE0
03F0
00F0
00F0
00F0
81F0
FFE0
FFC0
7F00
ENDCHAR
STARTCHAR t
ENCODING 116
SWIDTH 389 0
DWIDTH 14 0
BBX 13 24 0 0
BITMAP
0300
0F00
0F00
0F00
0F00
FFF8
FFF8
FFF8
0F00
0F00
0F00
0F00
0F00
0F00
0F00
0F00
0F00
0F00
0F00
0F00
0F80
07F8
07F8
01F8
ENDCHAR
STARTCHAR u
ENCODING 117
SWIDTH 611 0
DWIDTH 22 0
BBX 17 19 3 0
BITMAP
F00780
F00780
F00780
F00780
F00780
F00780
F00780
F00780
F00780
F00780
F00780
F00780
F00F80
F00F80
F81F80
7C3F80
7FF780
3FF780
0FC780
ENDCHAR
STARTCHAR v
ENCODING 118
SWIDTH 500 0
DWIDTH 18 0
BBX 18 19 0 0
BITMAP
F807C0
780780
780780
380700
3C0F00
3C0F00
1C0E00
1E1E00
1E1E00
0E1C00
0F1C00
0F3C00
073800
073800
07F800
03F000
03F000
03F000
01E000
ENDCHAR
STARTCHAR w
ENCODING 119
SWIDTH 833 0
DWIDTH 30 0
BBX 29 19 0 0
BITMAP
F0078078
78078078
780FC078
780FC070
380DC0F0
3C1CE0F0
3C1CE0E0
1C1CE0E0
1C38E1E0
1E3871E0
0E3871C0
0E3071C0
0E703BC0
07703B80
07603B80
07E01F80
07E01F00
03E01F00
03C01F00
ENDCHAR
STARTCHAR x
ENCODING 120
SWIDTH 500 0
DWIDTH 18 0
BBX 18 19 0 0
BITMAP
7C0780
3C0F00
1E0E00
1E1E00
0F1C00
073C00
07F800
03F000
01F000
01E000
03F000
07F800
073800
0F3C00
1E1E00
1E1E00
3C0F00
780780
F807C0
ENDCHAR
STARTCHAR y
ENCODING 121
SWIDTH 500 0
DWIDTH 18 0
BBX 18 27 0 -8
BITMAP
F003C0
780780
780780
780780
3C0F00
3C0F00
3C0E00
1C1E00
1E1E00
1E1C00
0E1C00
0F3C00
073800
073800
07F800
03F000
03F000
03F000
01E000
01E000
01E000
03C000
03C000
078000
7F8000
7F0000
7C0000
ENDCHAR
STARTCHAR z
ENCODING 122
SWIDTH 500 0
DWIDTH 18 0
BBX 15 19 2 0
BITMAP
7FFE
7FFE
7FFE
003C
0078
00F8
00F0
01E0
03C0
0780
0F80
0F00
1E00
3C00
7800
F800
FFFE
FFFE
FFFE
ENDCHAR
STARTCHAR braceleft
ENCODING 123
SWIDTH 333 0
DWIDTH 12 0
BBX 10 32 1 -5
BITMAP
07C0
0FC0
1FC0
1C00
1C00
1C00
1C00
1C00
1C00
1C00
1C00
1C00
1C00
3C00
7800
F000
F000
F800
3C00
1C00
1C00
1C00
1C00
1C00
1C00
1C00
1C00
1C00
1C00
1FC0
0FC0
07C0
ENDCHAR
STARTCHAR bar
ENCODING 124
SWIDTH 222 0
DWIDTH 8 0
BBX 3 36 2 -9
BITMAP
E0
E0
E0
E0
E0
E0
E0
E0
E0
E0
E0
E0
E0
E0
E0
E0
E0
E0
E0
E0
E0
E0
E0
E0
E0
E0
E0
E0
E0
E0
E0
E0
E0
E0
E0
E0
ENDCHAR
STARTCHAR braceright
ENCODING 125
SWIDTH 333 0
DWIDTH 12 0
BBX 10 32 1 -5
BITMAP
F800
FC00
FE00
0E00
0E00
0E00
0E00
0E00
0E00
0E00
0E00
0E00
0E00
0F00
0780
03C0
01C0
07C0
0F00
0E00
0E00
0E00
0E00
0E00
0E00
0E00
0E00
0E00
0E00
FE00
FC00
F800
ENDCHAR
STARTCHAR asciitilde
ENCODING 126
SWIDTH 600 0
DWIDTH 22 0
BBX 17 6 2 6
BITMAP
3E0100
7FC380
FFFF80
E3FF00
407E00
800000
ENDCHAR
STARTCHAR Zcaron
ENCODING 142
SWIDTH 556 0
DWIDTH 20 0
BBX 17 32 1 0
BITMAP
1C1C00
0E3800
077000
03E000
01C000
000000
000000
FFFF80
FFFF80
FFFF80
000780
000F00
001F00
001E00
003C00
007C00
007800
00F000
01E000
03E000
03C000
078000
0F8000
0F0000
1E0000
3E0000
3C0000
780000
F00000
FFFF80
FFFF80
FFFF80
ENDCHAR
STARTCHAR zcaron
ENCODING 158
SWIDTH 500 0
DWIDTH 18 0
BBX 15 26 2 0
BITMAP
7070
38E0
1DC0
0F80
0700
0000
0000
7FFE
7FFE
7FFE
003C
0078
00F8
00F0
01E0
03C0
0780
0F80
0F00
1E00
3C00
7800
F800
FFFE
FFFE
FFFE
ENDCHAR
STARTCHAR nonbreakingspace
ENCODING 160
SWIDTH 278 0
DWIDTH 10 0
BBX 1 1 0 0
BITMAP
00
ENDCHAR
STARTCHAR exclamdown
ENCODING 161
SWIDTH 389 0
DWIDTH 14 0
BBX 4 26 5 -7
BITMAP
F0
F0
F0
F0
00
00
00
00
F0
F0
F0
F0
F0
F0
F0
F0
F0
F0
F0
F0
F0
F0
F0
F0
F0
F0
ENDCHAR
STARTCHAR cent
ENCODING 162
SWIDTH 556 0
DWIDTH 20 0
BBX 14 27 3 -4
BITMAP
0018
0018
0030
0030
03F8
0FF8
1FF8
3E60
7C60
78C0
F8C0
F0C0
F180
F180
F180
F380
F300
7B00
7B00
3E08
1FF8
0FFC
0FF8
0C00
0C00
0C00
1800
ENDCHAR
STARTCHAR sterling
ENCODING 163
SWIDTH 556 0
DWIDTH 20 0
BBX 16 25 2 0
BITMAP
007F
01FF
07FF
0FC1
0F80
0F00
1E00
1E00
1E00
1E00
1E00
FFF8
FFF8
1E00
1E00
1E00
1E00
1E00
1E00
1E00
1E00
1E00
FFFF
FFFF
FFFF
ENDCHAR
STARTCHAR currency
ENCODING 164
SWIDTH 556 0
DWIDTH 20 0
BBX 18 18 1 3
BITMAP
43F080
EFFDC0
7FFF80
3E1F00
780780
700380
F003C0
E001C0
E001C0
E001C0
E001C0
F003C0
700380
780780
3E1F00
7FFF80
EFFDC0
43F080
ENDCHAR
STARTCHAR yen
ENCODING 165
SWIDTH 556 0
DWIDTH 20 0
BBX 20 25 0 0
BITMAP
F000F0
7801E0
7801E0
3C03C0
3C03C0
1E0780
0F0700
0F0F00
079E00
079E00
03FC00
03FC00
1FFF80
1FFF80
00F000
00F000
00F000
1FFF80
1FFF80
00F000
00F000
00F000
00F000
00F000
00F000
ENDCHAR
STARTCHAR brokenbar
ENCODING 166
SWIDTH 222 0
DWIDTH 8 0
BBX 3 30 2 -6
BITMAP
E0
E0
E0
E0
E0
E0
E0
E0
E0
E0
E0
E0
E0
00
00
00
00
E0
E0
E0
E0
E0
E0
E0
E0
E0
E0
E0
E0
E0
ENDCHAR
STARTCHAR section
ENCODING 167
SWIDTH 556 0
DWIDTH 20 0
BBX 15 29 3 -4
BITMAP
0FF0
3FF8
7FF8
F818
F000
F000
F000
F800
7E00
3FC0
7FF0
73F8
E07C
E03C
E01C
F01C
FC1C
7FB8
1FF8
07F8
00FC
003C
003E
001E
003C
C07C
FFF8
FFF0
7FC0
ENDCHAR
STARTCHAR dieresis
ENCODING 168
SWIDTH 278 0
DWIDTH 10 0
BBX 10 4 0 21
BITMAP
F3C0
F3C0
F3C0
F3C0
ENDCHAR
STARTCHAR copyright
ENCODING 169
SWIDTH 800 0
DWIDTH 29 0
BBX 26 25 1 0
BITMAP
007F8000
01FFE000
07FFF800
0F807C00
1E001E00
3C1F0F00
387F8700
70FFC380
71C0E380
E38061C0
E38071C0
E38001C0
E38001C0
E38001C0
E38071C0
E3C061C0
71C0E380
70FFC380
387F8700
3C1F0F00
1E001E00
0F807C00
07FFF800
01FFE000
007F8000
ENDCHAR
STARTCHAR ordfeminine
ENCODING 170
SWIDTH 361 0
DWIDTH 13 0
BBX 11 12 1 13
BITMAP
3F80
7FC0
61E0
00E0
00E0
1FE0
7FE0
E0E0
E0E0
E1E0
FFE0
3EE0
ENDCHAR
STARTCHAR guillemotleft
ENCODING 171
SWIDTH 556 0
DWIDTH 20 0
BBX 15 15 2 2
BITMAP
070E
0F1E
0E1C
1C38
3C78
78F0
78F0
F1E0
78F0
78F0
3C78
1C38
0E1C
0F1E
070E
ENDCHAR
STARTCHAR logicalnot
ENCODING 172
SWIDTH 600 0
DWIDTH 22 0
BBX 18 11 2 3
BITMAP
FFFFC0
FFFFC0
FFFFC0
0001C0
0001C0
0001C0
0001C0
0001C0
0001C0
0001C0
0001C0
ENDCHAR
STARTCHAR hyphen.dup1
ENCODING 173
SWIDTH 333 0
DWIDTH 12 0
BBX 10 3 1 8
BITMAP
FFC0
FFC0
FFC0
ENDCHAR
STARTCHAR registered
ENCODING 174
SWIDTH 800 0
DWIDTH 29 0
BBX 26 25 1 0
BITMAP
007F8000
01FFE000
07FFF800
0F807C00
1E001E00
3C000F00
38FFC700
70FFC380
70E0E380
E0E0E1C0
E0E0E1C0
E0FFC1C0
E0FFC1C0
E0EE01C0
E0E701C0
E0E381C0
70E38380
70E1C380
38E0C700
3C002F00
1E001E00
0F807C00
07FFF800
01FFE000
007F8000
ENDCHAR
STARTCHAR macron
ENCODING 175
SWIDTH 278 0
DWIDTH 10 0
BBX 11 2 0 22
BITMAP
FFE0
FFE0
ENDCHAR
STARTCHAR degree
ENCODING 176
SWIDTH 400 0
DWIDTH 14 0
BBX 10 10 2 16
BITMAP
1E00
7F80
7380
E1C0
C0C0
C0C0
E1C0
7380
7F80
1E00
ENDCHAR
STARTCHAR plusminus
ENCODING 177
SWIDTH 600 0
DWIDTH 22 0
BBX 19 18 1 0
BITMAP
00E000
00E000
00E000
00E000
00E000
FFFFE0
FFFFE0
FFFFE0
00E000
00E000
00E000
00E000
00E000
000000
000000
FFFFE0
FFFFE0
FFFFE0
ENDCHAR
STARTCHAR twosuperior
ENCODING 178
SWIDTH 361 0
DWIDTH 13 0
BBX 10 15 1 10
BITMAP
7E00
FF80
FFC0
81C0
01C0
01C0
0380
0780
0F00
1E00
3C00
7800
FFC0
FFC0
FFC0
ENDCHAR
STARTCHAR threesuperior
ENCODING 179
SWIDTH 361 0
DWIDTH 13 0
BBX 11 16 1 9
BITMAP
3F00
7FC0
7FE0
00E0
00E0
01C0
1F80
1F00
1FC0
01E0
00E0
00E0
01E0
7FE0
7FC0
FF00
ENDCHAR
STARTCHAR acute
ENCODING 180
SWIDTH 278 0
DWIDTH 10 0
BBX 7 5 3 21
BITMAP
1E
3C
78
70
E0
ENDCHAR
STARTCHAR mu
ENCODING 181
SWIDTH 611 0
DWIDTH 22 0
BBX 17 27 3 -8
BITMAP
F00780
F00780
F00780
F00780
F00780
F00780
F00780
F00780
F00780
F00780
F00780
F00780
F00F80
F00F80
F81F80
FC3F80
FFFF80
FFF780
FFC780
F00000
F00000
F00000
F00000
F00000
F00000
F00000
F00000
ENDCHAR
STARTCHAR paragraph
ENCODING 182
SWIDTH 600 0
DWIDTH 22 0
BBX 18 29 1 -4
BITMAP
07FFC0
1FFFC0
7FFFC0
7FE1C0
FFE1C0
FFE1C0
FFE1C0
FFE1C0
FFE1C0
7FE1C0
3FE1C0
1FE1C0
0FE1C0
00E1C0
00E1C0
00E1C0
00E1C0
00E1C0
00E1C0
00E1C0
00E1C0
00E1C0
00E1C0
00E1C0
00E1C0
00E1C0
00E1C0
00E1C0
00E1C0
ENDCHAR
STARTCHAR periodcentered
ENCODING 183
SWIDTH 278 0
DWIDTH 10 0
BBX 4 4 3 9
BITMAP
60
F0
F0
60
ENDCHAR
STARTCHAR cedilla
ENCODING 184
SWIDTH 278 0
DWIDTH 10 0
BBX 8 8 4 -8
BITMAP
18
30
3C
7E
07
07
8E
FC
ENDCHAR
STARTCHAR onesuperior
ENCODING 185
SWIDTH 361 0
DWIDTH 13 0
BBX 7 15 2 10
BITMAP
0E
1E
7E
EE
4E
0E
0E
0E
0E
0E
0E
0E
0E
0E
0E
ENDCHAR
STARTCHAR ordmasculine
ENCODING 186
SWIDTH 397 0
DWIDTH 14 0
BBX 12 12 1 14
BITMAP
1F80
3FC0
70E0
F0F0
E070
E070
E070
E070
7060
70E0
3FC0
1F00
ENDCHAR
STARTCHAR guillemotright
ENCODING 187
SWIDTH 556 0
DWIDTH 20 0
BBX 15 15 3 2
BITMAP
E1C0
F1E0
70E0
3870
3C78
1E3C
1E3C
0F1E
1E3C
1E3C
3C78
3870
70E0
F1E0
E1C0
ENDCHAR
STARTCHAR onequarter
ENCODING 188
SWIDTH 834 0
DWIDTH 30 0
BBX 28 27 1 -1
BITMAP
00001C00
0E001800
3E003800
7E003000
EE007000
4E00E000
0E00C000
0E01C000
0E018000
0E038000
0E030000
0E0703C0
0E0E07C0
0E0C0FC0
0E1C0DC0
0E181DC0
003839C0
007031C0
007071C0
00E0E1C0
00C0FFF0
01C1FFF0
0181FFF0
038001C0
070001C0
060001C0
0E000000
ENDCHAR
STARTCHAR onehalf
ENCODING 189
SWIDTH 834 0
DWIDTH 30 0
BBX 27 27 1 -1
BITMAP
00003800
0E003000
3E007000
7E006000
EE00E000
4E01C000
0E018000
0E038000
0E030000
0E070000
0E060000
0E0E3F00
0E1C7FC0
0E187FE0
0E3840E0
0E3000E0
007000E0
00E001C0
00E003C0
01C00780
01800F00
03801E00
03003C00
07007FE0
0E007FE0
0C007FE0
1C000000
ENDCHAR
STARTCHAR threequarters
ENCODING 190
SWIDTH 834 0
DWIDTH 30 0
BBX 28 27 1 -1
BITMAP
00000700
3F000600
7FC00E00
7FE00C00
00E01C00
00E03800
01C03000
1F807000
1F006000
1FC0E000
01E0C000
00E1C3C0
00E387C0
01E30FC0
7FE70DC0
7FC61DC0
FF0E39C0
001C31C0
001C71C0
0038E1C0
0030FFF0
0071FFF0
0061FFF0
00E001C0
01C001C0
018001C0
03800000
ENDCHAR
STARTCHAR questiondown
ENCODING 191
SWIDTH 500 0
DWIDTH 18 0
BBX 13 26 2 -7
BITMAP
0780
0780
0780
0780
0000
0000
0000
0780
0780
0780
0700
0F00
1E00
3C00
7C00
7800
F000
F000
F000
F000
F000
F008
FC38
7FF8
3FF8
0FE0
ENDCHAR
STARTCHAR Agrave
ENCODING 192
SWIDTH 722 0
DWIDTH 26 0
BBX 26 32 0 0
BITMAP
00F00000
00780000
00380000
001C0000
000E0000
00000000
00000000
001E0000
003F0000
003F0000
007F0000
00778000
00738000
00F3C000
00E3C000
01E1E000
01C1E000
03C0E000
03C0F000
0380F000
07807800
07807800
0F003C00
0FFFFC00
1FFFFC00
1FFFFE00
1E001E00
3C000F00
3C000F00
78000780
78000780
F00007C0
ENDCHAR
STARTCHAR Aacute
ENCODING 193
SWIDTH 722 0
DWIDTH 26 0
BBX 26 32 0 0
BITMAP
0003C000
00078000
000F0000
000E0000
001C0000
00000000
00000000
001E0000
003F0000
003F0000
007F0000
00778000
00738000
00F3C000
00E3C000
01E1E000
01C1E000
03C0E000
03C0F000
0380F000
07807800
07807800
0F003C00
0FFFFC00
1FFFFC00
1FFFFE00
1E001E00
3C000F00
3C000F00
78000780
78000780
F00007C0
ENDCHAR
STARTCHAR Acircumflex
ENCODING 194
SWIDTH 722 0
DWIDTH 26 0
BBX 26 32 0 0
BITMAP
001C0000
003E0000
00770000
00E38000
01C1C000
00000000
00000000
001E0000
003F0000
003F0000
007F0000
00778000
00738000
00F3C000
00E3C000
01E1E000
01C1E000
03C0E000
03C0F000
0380F000
07807800
07807800
0F003C00
0FFFFC00
1FFFFC00
1FFFFE00
1E001E00
3C000F00
3C000F00
78000780
78000780
F00007C0
ENDCHAR
STARTCHAR Atilde
ENCODING 195
SWIDTH 722 0
DWIDTH 26 0
BBX 26 31 0 0
BITMAP
00706000
00FCE000
01CFC000
01838000
00000000
00000000
001E0000
003F0000
003F0000
007F0000
00778000
00738000
00F3C000
00E3C000
01E1E000
01C1E000
03C0E000
03C0F000
0380F000
07807800
07807800
0F003C00
0FFFFC00
1FFFFC00
1FFFFE00
1E001E00
3C000F00
3C000F00
78000780
78000780
F00007C0
ENDCHAR
STARTCHAR Adieresis
ENCODING 196
SWIDTH 722 0
DWIDTH 26 0
BBX 26 31 0 0
BITMAP
00F3C000
00F3C000
00F3C000
00F3C000
00000000
00000000
001E0000
003F0000
003F0000
007F0000
00778000
00738000
00F3C000
00E3C000
01E1E000
01C1E000
03C0E000
03C0F000
0380F000
07807800
07807800
0F003C00
0FFFFC00
1FFFFC00
1FFFFE00
1E001E00
3C000F00
3C000F00
78000780
78000780
F00007C0
ENDCHAR
STARTCHAR Aring
ENCODING 197
SWIDTH 722 0
DWIDTH 26 0
BBX 26 34 0 0
BITMAP
001C0000
00360000
00630000
00410000
00630000
00360000
001C0000
00000000
00000000
001E0000
003F0000
003F0000
007F0000
00778000
00738000
00F3C000
00E3C000
01E1E000
01C1E000
03C0E000
03C0F000
0380F000
07807800
07807800
0F003C00
0FFFFC00
1FFFFC00
1FFFFE00
1E001E00
3C000F00
3C000F00
78000780
78000780
F00007C0
ENDCHAR
STARTCHAR AE
ENCODING 198
SWIDTH 944 0
DWIDTH 34 0
BBX 32 25 0 0
BITMAP
0001FFFE
0003FFFE
0003FFFE
0007BC00
0007BC00
000F3C00
001E3C00
001E3C00
003C3C00
003C3C00
00783FFE
00F03FFE
00F03FFE
01E03C00
03E03C00
03C03C00
07FFFC00
07FFFE00
0FFFFE00
1F001E00
1E001E00
3C001E00
3C001FFF
78001FFF
F0001FFF
ENDCHAR
STARTCHAR Ccedilla
ENCODING 199
SWIDTH 611 0
DWIDTH 22 0
BBX 19 33 2 -8
BITMAP
007F80
01FFE0
07FFE0
0FE0E0
1F0000
3E0000
7C0000
780000
780000
F00000
F00000
F00000
F00000
F00000
F00000
F00000
780000
780000
7C0000
3E0000
1F0000
1FE060
07FFE0
03FFE0
007FC0
003000
002000
007C00
005E00
000E00
000E00
00DC00
01F800
ENDCHAR
STARTCHAR Egrave
ENCODING 200
SWIDTH 556 0
DWIDTH 20 0
BBX 14 32 3 0
BITMAP
3C00
1E00
0E00
0700
0380
0000
0000
FFFC
FFFC
FFFC
F000
F000
F000
F000
F000
F000
F000
FFF8
FFF8
FFF8
F000
F000
F000
F000
F000
F000
F000
F000
F000
FFFC
FFFC
FFFC
ENDCHAR
STARTCHAR Eacute
ENCODING 201
SWIDTH 556 0
DWIDTH 20 0
BBX 14 32 3 0
BITMAP
00F0
01E0
03C0
0380
0700
0000
0000
FFFC
FFFC
FFFC
F000
F000
F000
F000
F000
F000
F000
FFF8
FFF8
FFF8
F000
F000
F000
F000
F000
F000
F000
F000
F000
FFFC
FFFC
FFFC
ENDCHAR
STARTCHAR Ecircumflex
ENCODING 202
SWIDTH 556 0
DWIDTH 20 0
BBX 14 32 3 0
BITMAP
0700
0F80
1DC0
38E0
7070
0000
0000
FFFC
FFFC
FFFC
F000
F000
F000
F000
F000
F000
F000
FFF8
FFF8
FFF8
F000
F000
F000
F000
F000
F000
F000
F000
F000
FFFC
FFFC
FFFC
ENDCHAR
STARTCHAR Edieresis
ENCODING 203
SWIDTH 556 0
DWIDTH 20 0
BBX 14 31 3 0
BITMAP
3CF0
3CF0
3CF0
3CF0
0000
0000
FFFC
FFFC
FFFC
F000
F000
F000
F000
F000
F000
F000
FFF8
FFF8
FFF8
F000
F000
F000
F000
F000
F000
F000
F000
F000
FFFC
FFFC
FFFC
ENDCHAR
STARTCHAR Igrave
ENCODING 204
SWIDTH 278 0
DWIDTH 10 0
BBX 7 32 0 0
BITMAP
F0
78
38
1C
0E
00
00
1E
1E
1E
1E
1E
1E
1E
1E
1E
1E
1E
1E
1E
1E
1E
1E
1E
1E
1E
1E
1E
1E
1E
1E
1E
ENDCHAR
STARTCHAR Iacute
ENCODING 205
SWIDTH 278 0
DWIDTH 10 0
BBX 7 32 3 0
BITMAP
1E
3C
78
70
E0
00
00
F0
F0
F0
F0
F0
F0
F0
F0
F0
F0
F0
F0
F0
F0
F0
F0
F0
F0
F0
F0
F0
F0
F0
F0
F0
ENDCHAR
STARTCHAR Icircumflex
ENCODING 206
SWIDTH 278 0
DWIDTH 10 0
BBX 11 32 -1 0
BITMAP
0E00
1F00
3B80
71C0
E0E0
0000
0000
0F00
0F00
0F00
0F00
0F00
0F00
0F00
0F00
0F00
0F00
0F00
0F00
0F00
0F00
0F00
0F00
0F00
0F00
0F00
0F00
0F00
0F00
0F00
0F00
0F00
ENDCHAR
STARTCHAR Idieresis
ENCODING 207
SWIDTH 278 0
DWIDTH 10 0
BBX 10 31 0 0
BITMAP
F3C0
F3C0
F3C0
F3C0
0000
0000
1E00
1E00
1E00
1E00
1E00
1E00
1E00
1E00
1E00
1E00
1E00
1E00
1E00
1E00
1E00
1E00
1E00
1E00
1E00
1E00
1E00
1E00
1E00
1E00
1E00
ENDCHAR
STARTCHAR Eth
ENCODING 208
SWIDTH 722 0
DWIDTH 26 0
BBX 23 25 1 0
BITMAP
3FFC00
3FFF00
3FFFC0
3C0FE0
3C01F0
3C00F8
3C007C
3C003C
3C003C
3C001E
FFF81E
FFF81E
3C001E
3C001E
3C001E
3C001E
3C003C
3C003C
3C007C
3C0078
3C01F8
3C07F0
3FFFC0
3FFF80
3FFC00
ENDCHAR
STARTCHAR Ntilde
ENCODING 209
SWIDTH 722 0
DWIDTH 26 0
BBX 20 31 3 0
BITMAP
038300
07E700
0E7E00
0C1C00
000000
000000
FC00F0
FC00F0
FE00F0
FE00F0
FF00F0
F700F0
F780F0
F380F0
F3C0F0
F1C0F0
F1E0F0
F0E0F0
F0F0F0
F070F0
F078F0
F038F0
F03CF0
F01EF0
F00EF0
F00FF0
F007F0
F007F0
F003F0
F003F0
F001F0
ENDCHAR
STARTCHAR Ograve
ENCODING 210
SWIDTH 778 0
DWIDTH 28 0
BBX 24 32 2 0
BITMAP
01E000
00F000
007000
003800
001C00
000000
000000
00FF00
03FFC0
0FFFF0
1FC1F8
3F007C
3E003E
7C001E
78001F
F8000F
F0000F
F0000F
F0000F
F0000F
F0000F
F0000F
F0000F
F8000F
78001F
7C001E
3C003E
3F007C
1FC1F8
0FFFF0
03FFE0
00FF00
ENDCHAR
STARTCHAR Oacute
ENCODING 211
SWIDTH 778 0
DWIDTH 28 0
BBX 24 32 2 0
BITMAP
000780
000F00
001E00
001C00
003800
000000
000000
00FF00
03FFC0
0FFFF0
1FC1F8
3F007C
3E003E
7C001E
78001F
F8000F
F0000F
F0000F
F0000F
F0000F
F0000F
F0000F
F0000F
F8000F
78001F
7C001E
3C003E
3F007C
1FC1F8
0FFFF0
03FFE0
00FF00
ENDCHAR
STARTCHAR Ocircumflex
ENCODING 212
SWIDTH 778 0
DWIDTH 28 0
BBX 24 32 2 0
BITMAP
003800
007C00
00EE00
01C700
038380
000000
000000
00FF00
03FFC0
0FFFF0
1FC1F8
3F007C
3E003E
7C001E
78001F
F8000F
F0000F
F0000F
F0000F
F0000F
F0000F
F0000F
F0000F
F8000F
78001F
7C001E
3C003E
3F007C
1FC1F8
0FFFF0
03FFE0
00FF00
ENDCHAR
STARTCHAR Otilde
ENCODING 213
SWIDTH 778 0
DWIDTH 28 0
BBX 24 31 2 0
BITMAP
00E0C0
01F9C0
039F80
030700
000000
000000
00FF00
03FFC0
0FFFF0
1FC1F8
3F007C
3E003E
7C001E
78001F
F8000F
F0000F
F0000F
F0000F
F0000F
F0000F
F0000F
F0000F
F8000F
78001F
7C001E
3C003E
3F007C
1FC1F8
0FFFF0
03FFE0
00FF00
ENDCHAR
STARTCHAR Odieresis
ENCODING 214
SWIDTH 778 0
DWIDTH 28 0
BBX 24 31 2 0
BITMAP
01E780
01E780
01E780
01E780
000000
000000
00FF00
03FFC0
0FFFF0
1FC1F8
3F007C
3E003E
7C001E
78001F
F8000F
F0000F
F0000F
F0000F
F0000F
F0000F
F0000F
F0000F
F8000F
78001F
7C001E
3C003E
3F007C
1FC1F8
0FFFF0
03FFE0
00FF00
ENDCHAR
STARTCHAR multiply
ENCODING 215
SWIDTH 600 0
DWIDTH 22 0
BBX 17 17 2 0
BITMAP
200200
700700
F80F80
7C1F00
3E3E00
1F7C00
0FF800
07F000
03E000
07F000
0FF800
1F7C00
3E3E00
7C1F00
F80F80
700700
200200
ENDCHAR
STARTCHAR Oslash
ENCODING 216
SWIDTH 778 0
DWIDTH 28 0
BBX 24 25 2 0
BITMAP
00FF06
03FFCC
0FFFF8
1FC1F8
3F007C
3E007E
7C00DE
78019F
F8038F
F0030F
F0060F
F00C0F
F0180F
F0300F
F0700F
F0600F
F8C00F
79801F
7F001E
3F003E
3F007C
1FC1F8
1FFFF0
33FFE0
70FF00
ENDCHAR
STARTCHAR Ugrave
ENCODING 217
SWIDTH 722 0
DWIDTH 26 0
BBX 20 32 3 0
BITMAP
078000
03C000
01C000
00E000
007000
000000
000000
F000F0
F000F0
F000F0
F000F0
F000F0
F000F0
F000F0
F000F0
F000F0
F000F0
F000F0
F000F0
F000F0
F000F0
F000F0
F000F0
F000F0
F000F0
F801E0
7801E0
7C03E0
3F0FC0
1FFF80
0FFF00
03FC00
ENDCHAR
STARTCHAR Uacute
ENCODING 218
SWIDTH 722 0
DWIDTH 26 0
BBX 20 32 3 0
BITMAP
001E00
003C00
007800
007000
00E000
000000
000000
F000F0
F000F0
F000F0
F000F0
F000F0
F000F0
F000F0
F000F0
F000F0
F000F0
F000F0
F000F0
F000F0
F000F0
F000F0
F000F0
F000F0
F000F0
F801E0
7801E0
7C03E0
3F0FC0
1FFF80
0FFF00
03FC00
ENDCHAR
STARTCHAR Ucircumflex
ENCODING 219
SWIDTH 722 0
DWIDTH 26 0
BBX 20 32 3 0
BITMAP
00E000
01F000
03B800
071C00
0E0E00
000000
000000
F000F0
F000F0
F000F0
F000F0
F000F0
F000F0
F000F0
F000F0
F000F0
F000F0
F000F0
F000F0
F000F0
F000F0
F000F0
F000F0
F000F0
F000F0
F801E0
7801E0
7C03E0
3F0FC0
1FFF80
0FFF00
03FC00
ENDCHAR
STARTCHAR Udieresis
ENCODING 220
SWIDTH 722 0
DWIDTH 26 0
BBX 20 31 3 0
BITMAP
079E00
079E00
079E00
079E00
000000
000000
F000F0
F000F0
F000F0
F000F0
F000F0
F000F0
F000F0
F000F0
F000F0
F000F0
F000F0
F000F0
F000F0
F000F0
F000F0
F000F0
F000F0
F000F0
F801E0
7801E0
7C03E0
3F0FC0
1FFF80
0FFF00
03FC00
ENDCHAR
STARTCHAR Yacute
ENCODING 221
SWIDTH 667 0
DWIDTH 24 0
BBX 24 32 0 0
BITMAP
000780
000F00
001E00
001C00
003800
000000
000000
F8001F
78001E
3C003C
1E0078
1E0078
0F00F0
0781E0
07C1E0
03C3C0
01E780
01F780
00FF00
007E00
007E00
003C00
003C00
003C00
003C00
003C00
003C00
003C00
003C00
003C00
003C00
003C00
ENDCHAR
STARTCHAR Thorn
ENCODING 222
SWIDTH 556 0
DWIDTH 20 0
BBX 16 25 3 0
BITMAP
F000
F000
F000
F000
FFE0
FFF8
FFFC
F07E
F01F
F00F
F00F
F00F
F00F
F00F
F01F
F07E
FFFC
FFF8
FFE0
F000
F000
F000
F000
F000
F000
ENDCHAR
STARTCHAR germandbls
ENCODING 223
SWIDTH 611 0
DWIDTH 22 0
BBX 18 27 3 0
BITMAP
07F000
1FFC00
3FFE00
7C1F00
780F00
780F00
F00780
F00F80
F00F00
F00F00
F01F00
F0FC00
F1F800
F1FE00
F03F00
F00F80
F00780
F00780
F003C0
F003C0
F003C0
F00780
F00780
F00F80
F3FF00
F3FE00
F3F800
ENDCHAR
STARTCHAR agrave
ENCODING 224
SWIDTH 556 0
DWIDTH 20 0
BBX 16 26 2 0
BITMAP
1E00
0F00
0700
0380
01C0
0000
0000
07F0
1FFC
3FFE
301E
201F
000F
000F
07FF
1FFF
7FFF
780F
F00F
F00F
F00F
F01F
F83F
7FFF
3FEF
1F8F
ENDCHAR
STARTCHAR aacute
ENCODING 225
SWIDTH 556 0
DWIDTH 20 0
BBX 16 26 2 0
BITMAP
0078
00F0
01E0
01C0
0380
0000
0000
07F0
1FFC
3FFE
301E
201F
000F
000F
07FF
1FFF
7FFF
780F
F00F
F00F
F00F
F01F
F83F
7FFF
3FEF
1F8F
ENDCHAR
STARTCHAR acircumflex
ENCODING 226
SWIDTH 556 0
DWIDTH 20 0
BBX 16 26 2 0
BITMAP
0380
07C0
0EE0
1C70
3838
0000
0000
07F0
1FFC
3FFE
301E
201F
000F
000F
07FF
1FFF
7FFF
780F
F00F
F00F
F00F
F01F
F83F
7FFF
3FEF
1F8F
ENDCHAR
STARTCHAR atilde
ENCODING 227
SWIDTH 556 0
DWIDTH 20 0
BBX 16 25 2 0
BITMAP
0E0C
1F9C
39F8
3070
0000
0000
07F0
1FFC
3FFE
301E
201F
000F
000F
07FF
1FFF
7FFF
780F
F00F
F00F
F00F
F01F
F83F
7FFF
3FEF
1F8F
ENDCHAR
STARTCHAR adieresis
ENCODING 228
SWIDTH 556 0
DWIDTH 20 0
BBX 16 25 2 0
BITMAP
1E78
1E78
1E78
1E78
0000
0000
07F0
1FFC
3FFE
301E
201F
000F
000F
07FF
1FFF
7FFF
780F
F00F
F00F
F00F
F01F
F83F
7FFF
3FEF
1F8F
ENDCHAR
STARTCHAR aring
ENCODING 229
SWIDTH 556 0
DWIDTH 20 0
BBX 16 28 2 0
BITMAP
0380
06C0
0C60
0820
0C60
06C0
0380
0000
0000
07F0
1FFC
3FFE
301E
201F
000F
000F
07FF
1FFF
7FFF
780F
F00F
F00F
F00F
F01F
F83F
7FFF
3FEF
1F8F
ENDCHAR
STARTCHAR ae
ENCODING 230
SWIDTH 889 0
DWIDTH 32 0
BBX 30 19 1 0
BITMAP
07F01F80
1FFC7FE0
1FFEFFF0
181FE0F0
200FC078
00078078
00078038
07FFFFFC
1FFFFFFC
3FFFFFFC
7C078000
78078000
F0078000
F00FC000
781FE010
783DF030
3FFCFFF0
1FF87FF0
07E01FC0
ENDCHAR
STARTCHAR ccedilla
ENCODING 231
SWIDTH 444 0
DWIDTH 16 0
BBX 14 27 1 -8
BITMAP
03F8
0FF8
1FF8
3E00
7C00
7800
F800
F000
F000
F000
F000
F000
F800
7800
7C00
3E08
1FF8
0FFC
03F8
0180
0300
03E0
04F0
0070
0070
07E0
0FC0
ENDCHAR
STARTCHAR egrave
ENCODING 232
SWIDTH 556 0
DWIDTH 20 0
BBX 17 26 2 0
BITMAP
1E0000
0F0000
070000
038000
01C000
000000
000000
03F000
0FFC00
3FFE00
3C1F00
780F00
780780
F00780
FFFF80
FFFF80
FFFF80
F00000
F00000
F00000
780000
7C0200
3E0600
3FFE00
0FFE00
03F800
ENDCHAR
STARTCHAR eacute
ENCODING 233
SWIDTH 556 0
DWIDTH 20 0
BBX 17 26 2 0
BITMAP
007800
00F000
01E000
01C000
038000
000000
000000
03F000
0FFC00
3FFE00
3C1F00
780F00
780780
F00780
FFFF80
FFFF80
FFFF80
F00000
F00000
F00000
780000
7C0200
3E0600
3FFE00
0FFE00
03F800
ENDCHAR
STARTCHAR ecircumflex
ENCODING 234
SWIDTH 556 0
DWIDTH 20 0
BBX 17 26 2 0
BITMAP
038000
07C000
0EE000
1C7000
383800
000000
000000
03F000
0FFC00
3FFE00
3C1F00
780F00
780780
F00780
FFFF80
FFFF80
FFFF80
F00000
F00000
F00000
780000
7C0200
3E0600
3FFE00
0FFE00
03F800
ENDCHAR
STARTCHAR edieresis
ENCODING 235
SWIDTH 556 0
DWIDTH 20 0
BBX 17 25 2 0
BITMAP
1E7800
1E7800
1E7800
1E7800
000000
000000
03F000
0FFC00
3FFE00
3C1F00
780F00
780780
F00780
FFFF80
FFFF80
FFFF80
F00000
F00000
F00000
780000
7C0200
3E0600
3FFE00
0FFE00
03F800
ENDCHAR
STARTCHAR igrave
ENCODING 236
SWIDTH 278 0
DWIDTH 10 0
BBX 7 26 0 0
BITMAP
F0
78
38
1C
0E
00
00
1E
1E
1E
1E
1E
1E
1E
1E
1E
1E
1E
1E
1E
1E
1E
1E
1E
1E
1E
ENDCHAR
STARTCHAR iacute
ENCODING 237
SWIDTH 278 0
DWIDTH 10 0
BBX 7 26 3 0
BITMAP
1E
3C
78
70
E0
00
00
F0
F0
F0
F0
F0
F0
F0
F0
F0
F0
F0
F0
F0
F0
F0
F0
F0
F0
F0
ENDCHAR
STARTCHAR icircumflex
ENCODING 238
SWIDTH 278 0
DWIDTH 10 0
BBX 11 26 -1 0
BITMAP
0E00
1F00
3B80
71C0
E0E0
0000
0000
0F00
0F00
0F00
0F00
0F00
0F00
0F00
0F00
0F00
0F00
0F00
0F00
0F00
0F00
0F00
0F00
0F00
0F00
0F00
ENDCHAR
STARTCHAR idieresis
ENCODING 239
SWIDTH 278 0
DWIDTH 10 0
BBX 10 25 0 0
BITMAP
F3C0
F3C0
F3C0
F3C0
0000
0000
1E00
1E00
1E00
1E00
1E00
1E00
1E00
1E00
1E00
1E00
1E00
1E00
1E00
1E00
1E00
1E00
1E00
1E00
1E00
ENDCHAR
STARTCHAR eth
ENCODING 240
SWIDTH 611 0
DWIDTH 22 0
BBX 19 27 2 0
BITMAP
0C0400
3F1E00
1FFC00
07F000
07F000
1F7C00
3C3C00
081E00
03FF00
0FFF80
1FFF80
3E0FC0
7C07C0
7803C0
F803C0
F001E0
F001E0
F001E0
F001E0
F001E0
F801C0
7803C0
7C0780
3E0F80
1FFF00
0FFE00
03F000
ENDCHAR
STARTCHAR ntilde
ENCODING 241
SWIDTH 611 0
DWIDTH 22 0
BBX 17 25 3 0
BITMAP
0E0C00
1F9C00
39F800
307000
000000
000000
F1F800
F7FE00
FFFF00
FE1F00
FC0F80
F80780
F80780
F00780
F00780
F00780
F00780
F00780
F00780
F00780
F00780
F00780
F00780
F00780
F00780
ENDCHAR
STARTCHAR ograve
ENCODING 242
SWIDTH 611 0
DWIDTH 22 0
BBX 19 26 2 0
BITMAP
0F0000
078000
038000
01C000
00E000
000000
000000
03F800
0FFE00
1FFF00
3E0F80
7C07C0
7803C0
F803E0
F001E0
F001E0
F001E0
F001E0
F001E0
F801E0
7803C0
7C07C0
3E0F80
1FFF00
0FFE00
03F800
ENDCHAR
STARTCHAR oacute
ENCODING 243
SWIDTH 611 0
DWIDTH 22 0
BBX 19 26 2 0
BITMAP
003C00
007800
00F000
00E000
01C000
000000
000000
03F800
0FFE00
1FFF00
3E0F80
7C07C0
7803C0
F803E0
F001E0
F001E0
F001E0
F001E0
F001E0
F801E0
7803C0
7C07C0
3E0F80
1FFF00
0FFE00
03F800
ENDCHAR
STARTCHAR ocircumflex
ENCODING 244
SWIDTH 611 0
DWIDTH 22 0
BBX 19 26 2 0
BITMAP
01C000
03E000
077000
0E3800
1C1C00
000000
000000
03F800
0FFE00
1FFF00
3E0F80
7C07C0
7803C0
F803E0
F001E0
F001E0
F001E0
F001E0
F001E0
F801E0
7803C0
7C07C0
3E0F80
1FFF00
0FFE00
03F800
ENDCHAR
STARTCHAR otilde
ENCODING 245
SWIDTH 611 0
DWIDTH 22 0
BBX 19 25 2 0
BITMAP
070600
0FCE00
1CFC00
183800
000000
000000
03F800
0FFE00
1FFF00
3E0F80
7C07C0
7803C0
F803E0
F001E0
F001E0
F001E0
F001E0
F001E0
F801E0
7803C0
7C07C0
3E0F80
1FFF00
0FFE00
03F800
ENDCHAR
STARTCHAR odieresis
ENCODING 246
SWIDTH 611 0
DWIDTH 22 0
BBX 19 25 2 0
BITMAP
0F3C00
0F3C00
0F3C00
0F3C00
000000
000000
03F800
0FFE00
1FFF00
3E0F80
7C07C0
7803C0
F803E0
F001E0
F001E0
F001E0
F001E0
F001E0
F801E0
7803C0
7C07C0
3E0F80
1FFF00
0FFE00
03F800
ENDCHAR
STARTCHAR divide
ENCODING 247
SWIDTH 600 0
DWIDTH 22 0
BBX 18 21 2 -1
BITMAP
01C000
03E000
03F000
03E000
01E000
008000
000000
000000
000000
FFFFC0
FFFFC0
FFFFC0
000000
000000
000000
008000
01E000
03E000
03F000
03E000
01C000
ENDCHAR
STARTCHAR oslash
ENCODING 248
SWIDTH 611 0
DWIDTH 22 0
BBX 19 21 2 -1
BITMAP
000080
03F8C0
0FFF80
1FFF00
3E0F80
7C07C0
780FC0
F819E0
F031E0
F061E0
F041E0
F081E0
F181E0
F303E0
7E03C0
7C07C0
3E0F80
1FFF00
3FFE00
63F800
400000
ENDCHAR
STARTCHAR ugrave
ENCODING 249
SWIDTH 611 0
DWIDTH 22 0
BBX 17 26 3 0
BITMAP
1E0000
0F0000
070000
038000
01C000
000000
000000
F00780
F00780
F00780
F00780
F00780
F00780
F00780
F00780
F00780
F00780
F00780
F00780
F00F80
F00F80
F81F80
7C3F80
7FF780
3FF780
0FC780
ENDCHAR
STARTCHAR uacute
ENCODING 250
SWIDTH 611 0
DWIDTH 22 0
BBX 17 26 3 0
BITMAP
007800
00F000
01E000
01C000
038000
000000
000000
F00780
F00780
F00780
F00780
F00780
F00780
F00780
F00780
F00780
F00780
F00780
F00780
F00F80
F00F80
F81F80
7C3F80
7FF780
3FF780
0FC780
ENDCHAR
STARTCHAR ucircumflex
ENCODING 251
SWIDTH 611 0
DWIDTH 22 0
BBX 17 26 3 0
BITMAP
038000
07C000
0EE000
1C7000
383800
000000
000000
F00780
F00780
F00780
F00780
F00780
F00780
F00780
F00780
F00780
F00780
F00780
F00780
F00F80
F00F80
F81F80
7C3F80
7FF780
3FF780
0FC780
ENDCHAR
STARTCHAR udieresis
ENCODING 252
SWIDTH 611 0
DWIDTH 22 0
BBX 17 25 3 0
BITMAP
1E7800
1E7800
1E7800
1E7800
000000
000000
F00780
F00780
F00780
F00780
F00780
F00780
F00780
F00780
F00780
F00780
F00780
F00780
F00F80
F00F80
F81F80
7C3F80
7FF780
3FF780
0FC780
ENDCHAR
STARTCHAR yacute
ENCODING 253
SWIDTH 500 0
DWIDTH 18 0
BBX 18 34 0 -8
BITMAP
003C00
007800
00F000
00E000
01C000
000000
000000
F003C0
780780
780780
780780
3C0F00
3C0F00
3C0E00
1C1E00
1E1E00
1E1C00
0E1C00
0F3C00
073800
073800
07F800
03F000
03F000
03F000
01E000
01E000
01E000
03C000
03C000
078000
7F8000
7F0000
7C0000
ENDCHAR
STARTCHAR thorn
ENCODING 254
SWIDTH 611 0
DWIDTH 22 0
BBX 18 35 3 -8
BITMAP
F00000
F00000
F00000
F00000
F00000
F00000
F00000
F00000
F1F800
F7FE00
FFFF00
FE0F00
FC0780
F80780
F003C0
F003C0
F003C0
F003C0
F003C0
F003C0
F00780
F80780
FC0F80
FE1F00
FFFF00
F7FE00
F1F800
F00000
F00000
F00000
F00000
F00000
F00000
F00000
F00000
ENDCHAR
STARTCHAR ydieresis
ENCODING 255
SWIDTH 500 0
DWIDTH 18 0
BBX 18 33 0 -8
BITMAP
0F3C00
0F3C00
0F3C00
0F3C00
000000
000000
F003C0
780780
780780
780780
3C0F00
3C0F00
3C0E00
1C1E00
1E1E00
1E1C00
0E1C00
0F3C00
073800
073800
07F800
03F000
03F000
03F000
01E000
01E000
01E000
03C000
03C000
078000
7F8000
7F0000
7C0000
ENDCHAR
STARTCHAR .notdef
ENCODING -1
SWIDTH 500 0
DWIDTH 18 0
BBX 14 19 2 0
BITMAP
FFFC
8004
8004
8004
8004
8004
8004
8004
8004
8004
8004
8004
8004
8004
8004
8004
8004
8004
FFFC
ENDCHAR
STARTCHAR quoteright
ENCODING -1
SWIDTH 278 0
DWIDTH 10 0
BBX 6 9 2 16
BITMAP
3C
3C
78
78
70
70
F0
E0
E0
ENDCHAR
STARTCHAR quoteleft
ENCODING -1
SWIDTH 278 0
DWIDTH 10 0
BBX 6 9 2 16
BITMAP
1C
3C
3C
38
78
78
78
F0
F0
ENDCHAR
STARTCHAR fraction.dup2
ENCODING -1
SWIDTH 167 0
DWIDTH 6 0
BBX 19 27 -6 -1
BITMAP
0000E0
0001C0
000180
000380
000700
000600
000E00
000C00
001C00
003800
003000
007000
006000
00E000
01C000
018000
038000
030000
070000
0E0000
0C0000
1C0000
180000
380000
700000
600000
E00000
ENDCHAR
STARTCHAR florin
ENCODING -1
SWIDTH 556 0
DWIDTH 20 0
BBX 18 33 1 -8
BITMAP
000FC0
001FC0
003FC0
003C00
007800
007800
007800
007800
00F000
00F000
0FFF80
0FFF00
0FFF00
01E000
01E000
01E000
01E000
01E000
03C000
03C000
03C000
03C000
03C000
078000
078000
078000
078000
078000
0F0000
0F0000
7F0000
FE0000
F80000
ENDCHAR
STARTCHAR quotedblleft
ENCODING -1
SWIDTH 556 0
DWIDTH 20 0
BBX 13 9 4 16
BITMAP
1C38
3C78
3C78
3870
78F0
78F0
78F0
F1E0
F1E0
ENDCHAR
STARTCHAR guilsinglleft
ENCODING -1
SWIDTH 278 0
DWIDTH 10 0
BBX 8 15 1 2
BITMAP
07
0F
0E
1C
3C
78
78
F0
78
78
3C
1C
0E
0F
07
ENDCHAR
STARTCHAR guilsinglright
ENCODING -1
SWIDTH 278 0
DWIDTH 10 0
BBX 8 15 1 2
BITMAP
E0
F0
70
38
3C
1E
1E
0F
1E
1E
3C
38
70
F0
E0
ENDCHAR
STARTCHAR fi
ENCODING -1
SWIDTH 667 0
DWIDTH 24 0
BBX 20 27 1 0
BITMAP
01F8F0
03F8F0
07F8F0
0F80F0
0F0000
0F0000
0F0000
0F0000
FFF8F0
FFF8F0
FFF8F0
0F00F0
0F00F0
0F00F0
0F00F0
0F00F0
0F00F0
0F00F0
0F00F0
0F00F0
0F00F0
0F00F0
0F00F0
0F00F0
0F00F0
0F00F0
0F00F0
ENDCHAR
STARTCHAR fl
ENCODING -1
SWIDTH 667 0
DWIDTH 24 0
BBX 20 27 1 0
BITMAP
01F8F0
03F8F0
07F8F0
0F80F0
0F00F0
0F00F0
0F00F0
0F00F0
FFF8F0
FFF8F0
FFF8F0
0F00F0
0F00F0
0F00F0
0F00F0
0F00F0
0F00F0
0F00F0
0F00F0
0F00F0
0F00F0
0F00F0
0F00F0
0F00F0
0F00F0
0F00F0
0F00F0
ENDCHAR
STARTCHAR endash
ENCODING -1
SWIDTH 500 0
DWIDTH 18 0
BBX 18 3 0 8
BITMAP
FFFFC0
FFFFC0
FFFFC0
ENDCHAR
STARTCHAR dagger
ENCODING -1
SWIDTH 556 0
DWIDTH 20 0
BBX 15 25 2 0
BITMAP
0380
0380
0380
0380
0380
0380
FFFE
FFFE
FFFE
0380
0380
0380
0380
0380
0380
0380
0380
0380
0380
0380
0380
0380
0380
0380
0380
ENDCHAR
STARTCHAR daggerdbl
ENCODING -1
SWIDTH 556 0
DWIDTH 20 0
BBX 15 25 2 0
BITMAP
0380
0380
0380
0380
0380
0380
FFFE
FFFE
FFFE
0380
0380
0380
0380
0380
0380
0380
0380
FFFE
FFFE
FFFE
0380
0380
0380
0380
0380
ENDCHAR
STARTCHAR bullet
ENCODING -1
SWIDTH 500 0
DWIDTH 18 0
BBX 13 13 3 6
BITMAP
0F80
3FE0
7FF0
7FF0
FFF8
FFF8
FFF8
FFF8
FFF8
7FF0
7FF0
3FE0
0F80
ENDCHAR
STARTCHAR quotesinglbase
ENCODING -1
SWIDTH 278 0
DWIDTH 10 0
BBX 6 9 2 -5
BITMAP
3C
3C
78
78
70
70
F0
E0
E0
ENDCHAR
STARTCHAR quotedblbase
ENCODING -1
SWIDTH 556 0
DWIDTH 20 0
BBX 13 9 4 -5
BITMAP
3C78
3CF0
78F0
78F0
70E0
71E0
F1E0
E1C0
E1C0
ENDCHAR
STARTCHAR quotedblright
ENCODING -1
SWIDTH 556 0
DWIDTH 20 0
BBX 13 9 4 16
BITMAP
3C78
3C78
78F0
78F0
70E0
70E0
F1E0
E1C0
E1C0
ENDCHAR
STARTCHAR ellipsis
ENCODING -1
SWIDTH 1000 0
DWIDTH 36 0
BBX 28 4 4 0
BITMAP
F00F00F0
F00F00F0
F00F00F0
F00F00F0
ENDCHAR
STARTCHAR perthousand
ENCODING -1
SWIDTH 1000 0
DWIDTH 36 0
BBX 37 27 0 -1
BITMAP
0000380000
1F00300000
3F80700000
7FC0600000
F1E0E00000
E0E1C00000
E0E1800000
E0E3800000
E0E3000000
E0E7000000
E0E6000000
71CE000000
7FDCF807C0
3F99FC0FE0
1F3BFE1FF0
00378F3C78
0077073838
00E7073838
00E7073838
01C7073838
0187073838
0387073838
03038E1C70
0703FE1FF0
0E01FC0FE0
0C00F807C0
1C00000000
ENDCHAR
STARTCHAR circumflex
ENCODING -1
SWIDTH 278 0
DWIDTH 10 0
BBX 11 5 -1 21
BITMAP
0E00
1F00
3B80
71C0
E0E0
ENDCHAR
STARTCHAR tilde
ENCODING -1
SWIDTH 278 0
DWIDTH 10 0
BBX 12 4 -1 21
BITMAP
3830
7E70
E7E0
C1C0
ENDCHAR
STARTCHAR breve
ENCODING -1
SWIDTH 278 0
DWIDTH 10 0
BBX 11 5 -1 21
BITMAP
C060
E0E0
71C0
7FC0
1F00
ENDCHAR
STARTCHAR dotaccent
ENCODING -1
SWIDTH 278 0
DWIDTH 10 0
BBX 4 4 3 21
BITMAP
F0
F0
F0
F0
ENDCHAR
STARTCHAR ring
ENCODING -1
SWIDTH 278 0
DWIDTH 10 0
BBX 7 7 1 21
BITMAP
38
6C
C6
82
C6
6C
38
ENDCHAR
STARTCHAR hungarumlaut
ENCODING -1
SWIDTH 278 0
DWIDTH 10 0
BBX 14 5 0 21
BITMAP
1E3C
3C78
78F0
70E0
E1C0
ENDCHAR
STARTCHAR ogonek
ENCODING -1
SWIDTH 278 0
DWIDTH 10 0
BBX 7 8 2 -8
BITMAP
1C
30
60
E0
E0
E0
FE
78
ENDCHAR
STARTCHAR caron
ENCODING -1
SWIDTH 278 0
DWIDTH 10 0
BBX 11 5 -1 21
BITMAP
E0E0
71C0
3B80
1F00
0E00
ENDCHAR
STARTCHAR emdash
ENCODING -1
SWIDTH 1000 0
DWIDTH 36 0
BBX 36 3 0 8
BITMAP
FFFFFFFFF0
FFFFFFFFF0
FFFFFFFFF0
ENDCHAR
STARTCHAR OE
ENCODING -1
SWIDTH 944 0
DWIDTH 34 0
BBX 30 25 2 0
BITMAP
003FFFFC
01FFFFFC
07FFFFFC
0FE0F000
1F00F000
3E00F000
7C00F000
7800F000
7800F000
F000F000
F000FFF8
F000FFF8
F000FFF8
F000F000
F000F000
F800F000
7800F000
7800F000
3C00F000
3E00F000
1F00F000
0FE0F000
07FFFFFC
01FFFFFC
003FFFFC
ENDCHAR
STARTCHAR dotlessi
ENCODING -1
SWIDTH 278 0
DWIDTH 10 0
BBX 4 19 3 0
BITMAP
F0
F0
F0
F0
F0
F0
F0
F0
F0
F0
F0
F0
F0
F0
F0
F0
F0
F0
F0
ENDCHAR
STARTCHAR oe
ENCODING -1
SWIDTH 944 0
DWIDTH 34 0
BBX 32 19 1 0
BITMAP
03F807E0
0FFE1FF8
1FFF3FFC
3E0FF83C
3C07F01E
7803E01E
7803E00E
7801FFFF
F001FFFF
F001FFFF
F001E000
7801E000
7803E000
7803F000
3C07F804
3E0FFC0C
1FFF3FFC
0FFE1FFC
03F807F0
ENDCHAR
STARTCHAR trademark
ENCODING -1
SWIDTH 990 0
DWIDTH 36 0
BBX 32 15 2 10
BITMAP
FFF0F00F
FFF0F81F
FFF0F81F
0700F81F
0700FC3F
0700FC3F
0700EE77
0700EE77
0700E677
0700E7E7
0700E7E7
0700E3C7
0700E3C7
0700E3C7
0700E187
ENDCHAR
STARTCHAR Ydieresis
ENCODING -1
SWIDTH 667 0
DWIDTH 24 0
BBX 24 31 0 0
BITMAP
01E780
01E780
01E780
000000
000000
000000
F8001F
78001E
3C003C
1E0078
1E00F8
0F00F0
0781E0
0783E0
03C3C0
01E780
01EF80
00FF00
007E00
007E00
003C00
003C00
003C00
003C00
003C00
003C00
003C00
003C00
003C00
003C00
003C00
ENDCHAR
STARTCHAR Lslash
ENCODING -1
SWIDTH 500 0
DWIDTH 18 0
BBX 16 25 1 0
BITMAP
3C00
3C00
3C00
3C00
3C00
3C00
3C00
3C00
3C08
3C38
3CF8
3DE0
3F80
3F00
7C00
FC00
FC00
BC00
3C00
3C00
3C00
3C00
3FFF
3FFF
3FFF
ENDCHAR
STARTCHAR lslash
ENCODING -1
SWIDTH 278 0
DWIDTH 10 0
BBX 8 27 1 0
BITMAP
3C
3C
3C
3C
3C
3C
3C
3C
3D
3F
3F
3E
3C
FC
FC
BC
BC
3C
3C
3C
3C
3C
3C
3C
3C
3C
3C
ENDCHAR
STARTCHAR minus
ENCODING -1
SWIDTH 600 0
DWIDTH 22 0
BBX 18 3 2 8
BITMAP
FFFFC0
FFFFC0
FFFFC0
ENDCHAR
STARTCHAR Scaron
ENCODING -1
SWIDTH 500 0
DWIDTH 18 0
BBX 15 32 1 0
BITMAP
3838
1C70
0EE0
07C0
0380
0000
0000
07F0
1FFC
3FF8
7C18
7800
F000
F000
F000
F800
7E00
3F80
1FE0
0FF0
03F8
007C
003E
001E
001E
001E
001E
003E
60FC
7FF8
7FF0
BFC0
ENDCHAR
STARTCHAR scaron
ENCODING -1
SWIDTH 389 0
DWIDTH 14 0
BBX 12 26 1 0
BITMAP
E0E0
71C0
3B80
1F00
0E00
0000
0000
0FC0
3FE0
7FE0
F840
F000
F000
F800
FC00
7F00
3FC0
0FE0
03F0
00F0
00F0
00F0
81F0
FFE0
FFC0
7F00
ENDCHAR
STARTCHAR Euro
ENCODING -1
SWIDTH 556 0
DWIDTH 20 0
BBX 21 25 0 0
BITMAP
000FE0
007FF8
01FFF0
03F010
07C000
078000
0F8000
0F0000
1F0000
FFFFE0
FFFFC0
1E0000
1E0000
1E0000
FFFFC0
FFFF80
1F0000
0F0000
0F8000
078000
07C000
03F010
01FFF0
007FF0
001FE0
ENDCHAR
ENDFONT
